<svg class="svg-icon" style="width: 1em; height: 1em;vertical-align: middle;fill: currentColor;overflow: hidden;" viewBox="0 0 1024 1024" version="1.1" xmlns="http://www.w3.org/2000/svg"><path d="M692.398 429.338h19.063l-21.01 140.773H575.286v-19.062h98.012zM541.646 551.049h22.655v19.063h-22.655z" fill="#333535" /><path d="M590.5 386.5c0 5.523-4.478 10-10 10H296.404c-5.522 0-10-4.477-10-10v-10c0-5.523 4.478-10 10-10H580.5c5.522 0 10 4.477 10 10v10zM646.422 734.103c-29.792 0-54.029-24.238-54.029-54.03s24.237-54.03 54.029-54.03 54.03 24.238 54.03 54.03-24.238 54.03-54.03 54.03z m0-80.061c-14.353 0-26.029 11.677-26.029 26.03s11.677 26.03 26.029 26.03c14.354 0 26.03-11.677 26.03-26.03s-11.677-26.03-26.03-26.03zM401.422 734.103c-29.792 0-54.03-24.238-54.03-54.03s24.238-54.03 54.03-54.03 54.03 24.238 54.03 54.03-24.238 54.03-54.03 54.03z m0-80.061c-14.353 0-26.03 11.677-26.03 26.03s11.677 26.03 26.03 26.03 26.03-11.677 26.03-26.03-11.677-26.03-26.03-26.03z" fill="#359443" /><path d="M772.829 311.669A14.997 14.997 0 0 0 761.5 306.5h-397v30h379.714l-35.729 251h-370.92l-43.712-245.667H263.38l46.85 263.294a15 15 0 0 0 14.768 12.372H721.5a15 15 0 0 0 14.851-12.886l40-281a15 15 0 0 0-3.522-11.944z" fill="#359443" /><path d="M271.557 221.39l22.348 120.954-29.502 5.45-22.348-120.954z" fill="#359443" /><path d="M258.461 250.411l-84.467-6.843c-4.944-0.358-8.468-7.347-7.869-15.61 0.599-8.262 5.092-14.67 10.036-14.312l94.467 6.843c4.945 0.359-7.222 30.28-12.167 29.922z" fill="#359443" /></svg>